<svg xmlns="http://www.w3.org/2000/svg" width="480" height="300" viewBox="0 0 480 300"><defs><pattern id="grid" width="24" height="24" patternUnits="userSpaceOnUse"><path d="M 24 0 L 0 0 0 24" fill="none" stroke="#dce6ec" stroke-width=".6"/></pattern><marker id="arrow" viewBox="0 0 10 10" refX="8" refY="5" markerWidth="5" markerHeight="5" orient="auto-start-reverse"><path d="M0 0L10 5L0 10" fill="none" stroke="#65889e" stroke-width="1.5"/></marker></defs><rect width="480" height="300" fill="#f1f5f7"/><rect x="20" y="20" width="440" height="260" fill="url(#grid)"/><g fill="none" stroke="#3d637e" stroke-width="2" stroke-linecap="round" stroke-linejoin="round"><path d="M154 126H326M197 114l-34-26M282 114l34-26" stroke-width="5"/><ellipse cx="153" cy="122" rx="49" ry="9"/><ellipse cx="327" cy="122" rx="49" ry="9"/><ellipse cx="161" cy="82" rx="41" ry="8" stroke="#8aa4b6"/><ellipse cx="319" cy="82" rx="41" ry="8" stroke="#8aa4b6"/><path d="M211 104h58v42h-58Z" fill="#cedee8"/><path d="M241 147v25l32 28-17 31" stroke-width="7"/><circle cx="241" cy="172" r="6" fill="#f1f5f7"/><circle cx="273" cy="200" r="6" fill="#f1f5f7"/><path d="M256 231 242 238 247 251M256 231 270 238 264 251" stroke-width="3"/><path d="M220 151 208 188M261 151 274 188M204 188h13M269 188h14" stroke="#9ab0bd"/><path d="M344 173q-17 42-50 47" stroke="#a2b7c4" stroke-dasharray="4 5" marker-end="url(#arrow)"/></g><text x="28" y="36" fill="#59768c" font-family="Arial,sans-serif" font-size="10" letter-spacing="2">AERIAL MANIPULATION</text><text x="28" y="275" fill="#839bab" font-family="Arial,sans-serif" font-size="9" letter-spacing="1.2">WHOLE-BODY NMPC / INDI</text><g></g></svg>